<svg class="logo-m" fill="none" viewBox="0 0 24 24" xmlns="http://www.w3.org/2000/svg">
  <g>
    <path d="M4 2 q-2 0 0 2 l3 3 q1 1 3 1 l10 0 q2 0 2 -2l0 -2 q0 -2 -2 -2 l-16 0 " stroke-width="1" stroke="#030506" fill="#fcdeab"></path>          
    <path d="M10 8 l10 0 q2 0 2 2 l0 10 q0 2 -2 0 l-11 -11 q-1 -1 1 -1" stroke-width="1" stroke="#030506" fill="#e31c51"></path>          
    <path d="M2 18 q0 -2 2 -2 l10 0 q2 0 3 1 l3 3 q2 2 0 2 l-16 0 q-2 0 -2 -2 l0 -2" stroke-width="1" stroke="#030506" fill="#fcdeab"></path>
    <path d="M2 4 q0 -2 2 0 l11 11 q1 1 -1 1 l-10 0 q-2 0 -2 -2 l0 -10" stroke-width="1" stroke="#030506" fill="#51c6dd"></path>
  </g>
</svg>