<svg xmlns="http://www.w3.org/2000/svg" version="1.1" xmlns:xlink="http://www.w3.org/1999/xlink" xmlns:svgjs="http://svgjs.dev/svgjs" width="1500" height="276" viewBox="0 0 1500 276"><g transform="matrix(1,0,0,1,-0.9090909090909918,0.8772521832387383)"><svg viewBox="0 0 396 73" data-background-color="#f2f0e4" preserveAspectRatio="xMidYMid meet" height="276" width="1500" xmlns="http://www.w3.org/2000/svg" xmlns:xlink="http://www.w3.org/1999/xlink"><g id="tight-bounds" transform="matrix(1,0,0,1,0.2400000000000091,-0.23202684556676445)"><svg viewBox="0 0 395.52 73.46405369113351" height="73.46405369113351" width="395.52"><g><svg viewBox="0 0 500.9128599960308 93.03976851063828" height="73.46405369113351" width="395.52"><g transform="matrix(1,0,0,1,0,12.858607659574467)"><svg viewBox="0 0 395.52 67.32255319148935" height="67.32255319148935" width="395.52"><g id="textblocktransform"><svg viewBox="0 0 395.52 67.32255319148935" height="67.32255319148935" width="395.52" id="textblock"><g><svg viewBox="0 0 395.52 67.32255319148935" height="67.32255319148935" width="395.52"><g transform="matrix(1,0,0,1,0,0)"><svg width="395.52" viewBox="0 -50 293.74 50" height="67.32255319148935" data-palette-color="#3d3028"><g class="wordmark-text-0" data-fill-palette-color="primary" id="text-0"><path d="M37.5-6.25L12.5-6.25 12.5-12.5 6.25-12.5 6.25-18.75 0-18.75 0-37.5 6.25-37.5 6.25-43.75 12.5-43.75 12.5-50 37.5-50 37.5-43.75 43.75-43.75 43.75-37.5 31.25-37.5 31.25-43.75 18.75-43.75 18.75-37.5 12.5-37.5 12.5-18.75 18.75-18.75 18.75-12.5 31.25-12.5 31.25-18.75 43.75-18.75 43.75-12.5 37.5-12.5 37.5-6.25ZM87.5 0L56.25 0 56.25-6.25 81.25-6.25 81.25-12.5 56.25-12.5 56.25-18.75 50-18.75 50-37.5 62.5-37.5 62.5-18.75 81.25-18.75 81.25-37.5 93.75-37.5 93.75-6.25 87.5-6.25 87.5 0ZM143.75-6.25L106.25-6.25 106.25-12.5 100-12.5 100-18.75 106.25-18.75 106.25-25 131.25-25 131.25-31.25 106.25-31.25 106.25-37.5 137.5-37.5 137.5-31.25 143.75-31.25 143.75-6.25ZM112.5-18.75L112.5-12.5 131.25-12.5 131.25-18.75 112.5-18.75ZM162.49-6.25L149.99-6.25 149.99-37.5 187.49-37.5 187.49-31.25 193.74-31.25 193.74-6.25 181.24-6.25 181.24-31.25 162.49-31.25 162.49-6.25ZM212.49-6.25L199.99-6.25 199.99-50 243.74-50 243.74-43.75 212.49-43.75 212.49-31.25 237.49-31.25 237.49-25 212.49-25 212.49-6.25ZM287.49-6.25L249.99-6.25 249.99-50 287.49-50 287.49-43.75 293.74-43.75 293.74-31.25 287.49-31.25 287.49-25 293.74-25 293.74-12.5 287.49-12.5 287.49-6.25ZM262.49-43.75L262.49-31.25 281.24-31.25 281.24-43.75 262.49-43.75ZM262.49-25L262.49-12.5 281.24-12.5 281.24-25 262.49-25Z" fill="#3d3028" data-fill-palette-color="primary"></path></g></svg></g></svg></g></svg></g></svg></g><g transform="matrix(1,0,0,1,411.41323906723403,0)"><svg viewBox="0 0 89.4996209287968 93.03976851063828" height="93.03976851063828" width="89.4996209287968"><g><svg xmlns="http://www.w3.org/2000/svg" xmlns:xlink="http://www.w3.org/1999/xlink" version="1.1" x="0" y="0" viewBox="18.323 17.068999999999996 63.355 65.86100000000002" enable-background="new 0 0 100 100" xml:space="preserve" height="93.03976851063828" width="89.4996209287968" class="icon-icon-0" data-fill-palette-color="accent" id="icon-0"><g fill="#b66f39" data-fill-palette-color="accent"><path d="M41.086 21.513c0.172-0.39 0.271-0.819 0.271-1.273 0-1.748-1.422-3.17-3.17-3.17s-3.17 1.422-3.17 3.17 1.422 3.17 3.17 3.17c0.375 0 0.73-0.077 1.064-0.197l24.309 26.045-13.675 27.35c-0.06-0.003-0.117-0.018-0.178-0.018-1.748 0-3.17 1.422-3.17 3.17s1.422 3.17 3.17 3.17c1.748 0 3.17-1.422 3.17-3.17 0-0.777-0.292-1.479-0.757-2.031l14.064-28.13c0.233-0.467 0.152-1.03-0.204-1.412L41.086 21.513z" fill="#b66f39" data-fill-palette-color="accent"></path><path d="M58.506 49.599c0.24-0.481 0.146-1.062-0.234-1.442L31.527 21.412c0.146-0.363 0.23-0.757 0.23-1.172 0-1.748-1.422-3.17-3.17-3.17s-3.17 1.422-3.17 3.17 1.422 3.17 3.17 3.17c0.415 0 0.808-0.085 1.171-0.23l14.67 14.67c-0.029 0.024-0.065 0.034-0.092 0.061L31.114 51.134l-6.682-6.682c0.145-0.363 0.23-0.757 0.23-1.172 0-1.748-1.422-3.17-3.169-3.17-1.748 0-3.17 1.422-3.17 3.17 0 1.748 1.422 3.17 3.17 3.17 0.414 0 0.808-0.085 1.171-0.23l6.683 6.682-7.089 7.089c-0.088 0.088-0.142 0.193-0.198 0.297-0.287 0.229-0.482 0.566-0.482 0.962v6.018c-0.365 0.149-0.705 0.363-0.992 0.65-1.235 1.236-1.235 3.247 0 4.483 0.599 0.599 1.395 0.929 2.242 0.929s1.643-0.33 2.241-0.929c0.599-0.599 0.929-1.395 0.929-2.241s-0.33-1.643-0.929-2.242c-0.287-0.287-0.626-0.501-0.991-0.65v-5.562l22.028-22.028c0.027-0.027 0.037-0.063 0.061-0.092L48.9 42.32 27.704 63.516c-0.008 0.008-0.01 0.019-0.018 0.027-0.104 0.11-0.192 0.236-0.251 0.379-0.063 0.153-0.097 0.315-0.097 0.479v10.548c-0.365 0.149-0.705 0.363-0.992 0.65-1.236 1.235-1.236 3.247 0 4.483 0.599 0.599 1.395 0.928 2.242 0.928 0.847 0 1.643-0.329 2.241-0.928 1.236-1.236 1.236-3.247 0-4.483-0.287-0.287-0.626-0.501-0.991-0.65V64.917l20.83-20.83 5.199 5.199L42.206 76.608c-0.061-0.003-0.118-0.018-0.179-0.018-1.748 0-3.17 1.422-3.17 3.17s1.422 3.17 3.17 3.17c1.748 0 3.17-1.422 3.17-3.17 0-0.777-0.292-1.479-0.757-2.031L58.506 49.599z" fill="#b66f39" data-fill-palette-color="accent"></path><path d="M78.508 74.67c-0.257 0-0.503 0.039-0.742 0.097l-3.768-5.023V49.04c0-0.313-0.118-0.614-0.329-0.845l-8.208-8.954 6.114-6.114c0.363 0.146 0.757 0.231 1.172 0.231 1.748 0 3.169-1.422 3.169-3.17 0-1.748-1.422-3.17-3.169-3.17-1.748 0-3.17 1.422-3.17 3.17 0 0.415 0.085 0.808 0.23 1.171l-6.038 6.037-3.066-3.345 10.872-10.872c0.363 0.145 0.757 0.23 1.172 0.23 1.748 0 3.169-1.422 3.169-3.17s-1.422-3.17-3.169-3.17c-1.748 0-3.17 1.422-3.17 3.17 0 0.415 0.085 0.809 0.23 1.172L59.013 32.207l-6.135-6.693V23.15c1.127-0.486 1.92-1.607 1.92-2.911 0-1.748-1.422-3.17-3.17-3.17-1.748 0-3.17 1.422-3.17 3.17 0 1.304 0.792 2.425 1.92 2.911V26c0 0.061 0.026 0.114 0.035 0.172 0.014 0.095 0.021 0.189 0.057 0.279 0.033 0.086 0.088 0.156 0.139 0.231 0.035 0.053 0.053 0.114 0.098 0.162l20.792 22.682V70.16c0 0.271 0.087 0.534 0.25 0.75l4.021 5.362c-0.267 0.464-0.432 0.995-0.432 1.568 0 1.748 1.422 3.17 3.17 3.17 1.748 0 3.17-1.422 3.17-3.17S80.255 74.67 78.508 74.67z" fill="#b66f39" data-fill-palette-color="accent"></path></g></svg></g></svg></g></svg></g><defs></defs></svg><rect width="395.52" height="73.46405369113351" fill="none" stroke="none" visibility="hidden"></rect></g></svg></g></svg>